<svg version="1.1" xmlns="http://www.w3.org/2000/svg" style="display: block;" viewBox="0 0 2048 1365" width="1536" height="1024" preserveAspectRatio="none">
<path transform="translate(0,0)" fill="rgb(0,0,0)" d="M 604.016 508.281 L 746.635 508.246 C 799.537 508.233 872.44 496.395 875.959 572.282 C 876.716 588.607 869.29 616.657 849.56 618.059 C 825.706 619.754 800.67 619.021 776.625 619.012 L 628.038 619.007 L 628.085 630.88 C 720.956 631.799 816.364 631.235 909.329 630.807 C 915.354 611.886 922.469 593.001 929.302 574.33 C 935.685 591.638 943.864 610.51 950.65 628.13 C 953.291 636.523 964.155 662.249 968.353 669.985 C 966.585 681.051 960.739 699.229 957.027 709.683 C 948.629 695.496 935.285 664.471 928.252 648.841 L 924.703 658.838 C 908.868 659.159 893.028 659.147 877.194 658.8 C 902.673 695.652 889.06 750.161 841.734 758.91 C 817.884 763.319 782.456 761.162 757.537 761.15 L 604.108 761.234 C 603.492 732.81 604.003 702.554 604.004 674.017 L 604.016 508.281 z M 645.318 717.026 L 757.067 717.182 C 772.205 717.193 790.661 717.794 805.817 716.356 C 809.312 716.025 814.464 712.047 817.028 709.542 C 826.918 695.328 826.985 673.9 812.025 663.85 C 802.796 657.649 775.435 659.68 763.649 659.711 L 684.57 659.862 C 674.238 659.868 655.044 660.474 645.23 659.648 L 645.318 717.026 z M 645.213 602.251 C 677.818 602.52 710.425 602.611 743.031 602.524 C 759.658 602.53 777.688 602.979 794.241 601.777 C 798.498 601.468 801.677 599.368 805.138 597.045 C 818.931 582.536 813.047 556.14 794.827 555.31 C 746.434 553.104 693.177 555.855 645.12 554.704 C 645.158 570.348 645.438 586.662 645.213 602.251 z"/>
<path transform="translate(0,0)" fill="rgb(0,0,0)" d="M 1368.21 508.429 C 1390.92 508.18 1413.64 508.182 1436.36 508.436 L 1397.43 614.663 C 1409.55 614.613 1422.97 614.264 1434.98 614.59 C 1435.21 624.502 1435.2 634.418 1434.95 644.329 L 1275.36 644.273 C 1246.62 644.276 1215.39 644.834 1186.8 644.007 C 1172.84 665.859 1158.55 688.784 1144.13 710.253 C 1136.71 698.309 1113.73 654.718 1108.55 641.892 C 1096.38 678.368 1084.6 714.971 1073.19 751.692 C 1067.19 770.618 1060.77 792.266 1053.88 810.707 C 1049.31 787.021 1036.52 755.44 1032.72 733.147 C 1036.15 728.277 1049.37 694.542 1052.14 687.284 C 1067.95 645.886 1084.67 599.304 1101.83 558.862 C 1114.87 583.929 1127.03 609.505 1140.29 634.477 C 1142.08 637.854 1143.99 641.405 1145.38 644.962 C 1151.07 635.583 1157.84 623.667 1163.87 614.752 C 1194.64 614.487 1225.41 614.433 1256.17 614.591 C 1279.49 614.585 1304.87 614.05 1328.03 614.668 C 1342.34 580.752 1354.38 543.008 1368.21 508.429 z"/>
<path transform="translate(0,0)" fill="rgb(0,0,0)" d="M 1314.73 658.227 C 1337.53 658.006 1360.33 658.007 1383.13 658.227 L 1354.49 740.25 L 1347.27 761.061 L 1271.39 761.041 C 1254.45 748.597 1235.28 732.626 1219.18 718.939 L 1210.72 731.893 C 1190.75 731.977 1170.77 731.956 1150.8 731.831 C 1163.37 712.004 1184.94 675.884 1198.22 658.501 C 1213.29 657.806 1235.43 657.955 1250.52 658.578 C 1263.84 672.049 1280.72 693.097 1294.6 708.213 L 1314.73 658.227 z"/>
<path transform="translate(0,0)" fill="rgb(0,0,0)" d="M 536.628 508.487 C 552.187 507.875 576.067 507.895 591.533 508.681 C 592.456 565.702 590.872 623.221 591.541 680.296 C 591.833 705.151 592.074 730.861 591.46 755.688 L 591.352 759.83 C 588.062 762.36 543.908 761.115 536.138 761.047 C 536.843 698.983 535.432 636.39 536.387 574.347 C 536.598 560.61 535.085 519.763 536.628 508.487 z"/>
<path transform="translate(0,0)" fill="rgb(0,0,0)" d="M 1449.36 508.365 C 1466.77 507.809 1486.58 508.281 1504.17 508.307 C 1505.77 590.135 1504.71 677.257 1504.19 759.152 L 1503.87 760.29 C 1500.81 761.871 1456.78 761.117 1449.39 761.081 L 1449.36 508.365 z"/>
<path transform="translate(0,0)" fill="rgb(236,39,49)" d="M 996.593 451.279 C 1012.87 521.638 1027.89 592.166 1046.1 662.069 C 1048.28 670.412 1050.28 678.866 1052.14 687.284 C 1049.37 694.542 1036.15 728.277 1032.72 733.147 C 1027.24 717.168 1019.49 683.391 1015.44 666.446 C 1008.61 637.812 998.533 601.754 993.377 572.985 C 984.867 604.342 977.547 639.19 968.353 669.985 C 964.155 662.249 953.291 636.523 950.65 628.13 C 961.028 588.385 971.155 548.575 981.03 508.702 C 984.717 494.289 991.83 464.151 996.593 451.279 z"/>
<path transform="translate(0,0)" fill="rgb(0,0,0)" d="M 1523.48 534.412 L 1565.26 534.634 C 1565.39 555.968 1566.76 726.973 1564.26 731.638 L 1561.25 731.948 L 1517.28 731.899 L 1517.3 591.489 C 1517.32 579.773 1515.77 546.913 1517.36 536.865 C 1519.65 534.071 1518.69 534.948 1523.48 534.412 z"/>
<path transform="translate(0,0)" fill="rgb(0,0,0)" d="M 477.578 534.542 C 493.046 534.481 508.515 534.501 523.983 534.604 L 523.97 731.736 C 508.904 732.318 492.442 731.933 477.273 731.866 C 477.795 718.302 477.302 701.437 477.29 687.68 L 477.278 589.912 C 477.285 572.276 476.846 551.975 477.578 534.542 z"/>
<path transform="translate(0,0)" fill="rgb(0,0,0)" d="M 425.176 605.21 C 438.097 604.785 452.712 605.135 465.759 605.148 C 466.118 623.163 465.905 641.952 465.896 660.007 L 424.93 659.981 C 424.842 641.724 424.925 623.466 425.176 605.21 z"/>
<path transform="translate(0,0)" fill="rgb(0,0,0)" d="M 1576.7 605.219 C 1589.32 604.68 1604.37 605.127 1617.17 605.187 C 1617.76 622.537 1617.28 642.468 1617.27 660.014 L 1576.17 659.998 C 1576.94 643.005 1576.56 622.454 1576.7 605.219 z"/>
</svg>